<?xml version="1.0" encoding="UTF-8"?>
<svg width="50px" height="50px" viewBox="0 0 50 50" version="1.1" xmlns="http://www.w3.org/2000/svg" xmlns:xlink="http://www.w3.org/1999/xlink">
    <!-- Generator: Sketch 59.1 (86144) - https://sketch.com -->
    <title>u-icon-word</title>
    <desc>Created with Sketch.</desc>
    <defs>
        <polygon id="path-1" points="7.8995627e-06 0.0778947368 32.9092622 0.0778947368 32.9092622 39.9999766 7.8995627e-06 39.9999766"></polygon>
        <polygon id="path-3" points="0 40 32.9411765 40 32.9411765 0 0 0"></polygon>
    </defs>
    <g id="u-icon-word" stroke="none" stroke-width="1" fill="none" fill-rule="evenodd">
        <g id="Group-9" transform="translate(9.000000, 5.000000)">
            <g id="Group-3">
                <mask id="mask-2" fill="white">
                    <use xlink:href="#path-1"></use>
                </mask>
                <g id="Clip-2"></g>
                <path d="M30.3968932,33.3023548 C30.3968932,35.6319454 28.4840931,37.5201326 26.1244937,37.5201326 L6.78541628,37.5201326 C4.42526393,37.5201326 2.51246382,35.6319454 2.51246382,33.3023548 L2.51246382,12.5995867 L9.12574073,12.5995867 C11.0914679,12.5995867 12.6860736,11.0262534 12.6860736,9.08535673 L12.6860736,2.5577154 L26.1244937,2.5577154 C28.4840931,2.5577154 30.3968932,4.44582456 30.3968932,6.7754152 L30.3968932,33.3023548 Z M26.1244937,0.077871345 L12.6860736,0.077871345 L11.6452273,0.077871345 L10.909462,0.804109162 L0.735852165,10.8461365 L7.8995627e-06,11.5723743 L7.8995627e-06,12.5996647 L7.8995627e-06,33.3024327 C7.8995627e-06,36.9952982 3.04355142,39.9999766 6.78541628,39.9999766 L26.1244937,39.9999766 C29.8656476,39.9999766 32.9092701,36.9952982 32.9092701,33.3024327 L32.9092701,6.7754152 C32.9092701,3.0820039 29.8656476,0.077871345 26.1244937,0.077871345 L26.1244937,0.077871345 Z" id="Fill-1" fill="#384FAF" mask="url(#mask-2)"></path>
            </g>
            <mask id="mask-4" fill="white">
                <use xlink:href="#path-3"></use>
            </mask>
            <g id="Clip-5"></g>
            <polygon id="Fill-4" fill="#384FAF" mask="url(#mask-4)" points="17.6470588 14.1176471 24.7058824 14.1176471 24.7058824 7.05882353 17.6470588 7.05882353"></polygon>
            <polygon id="Fill-6" fill="#384FAF" mask="url(#mask-4)" points="8.23529412 20 25.8823529 20 25.8823529 17.6470588 8.23529412 17.6470588"></polygon>
            <polygon id="Fill-7" fill="#384FAF" mask="url(#mask-4)" points="8.23529412 25.8823529 25.8823529 25.8823529 25.8823529 23.5294118 8.23529412 23.5294118"></polygon>
            <polygon id="Fill-8" fill="#384FAF" mask="url(#mask-4)" points="8.23529412 31.7647059 25.8823529 31.7647059 25.8823529 29.4117647 8.23529412 29.4117647"></polygon>
        </g>
    </g>
</svg>