<?xml version="1.0" encoding="UTF-8"?>
<svg width="69px" height="69px" viewBox="0 0 69 69" version="1.1" xmlns="http://www.w3.org/2000/svg" xmlns:xlink="http://www.w3.org/1999/xlink">
    <!-- Generator: Sketch 59.1 (86144) - https://sketch.com -->
    <title>u-icon-external</title>
    <desc>Created with Sketch.</desc>
    <g id="u-icon-external" stroke="none" stroke-width="1" fill="none" fill-rule="evenodd">
        <g id="Group-3-Copy-2" transform="translate(6.000000, 13.000000)" fill="#DDDDDD">
            <path d="M52.25,35.8333333 C52.247625,37.152 51.186,38.2198333 49.875,38.2222222 L16.625,38.2222222 C15.314,38.2198333 14.252375,37.152 14.25,35.8333333 L14.25,33.4444444 L40.375,33.4444444 C44.310375,33.4420556 47.497625,30.2361667 47.5,26.2777778 L47.5,14.3333333 L49.875,14.3333333 C51.186,14.3357222 52.247625,15.4035556 52.25,16.7222222 L52.25,35.8333333 Z M4.75,26.2777778 L4.75,7.16666667 C4.752375,5.848 5.814,4.78016667 7.125,4.77777778 L40.375,4.77777778 C41.686,4.78016667 42.747625,5.848 42.75,7.16666667 L42.75,26.2777778 C42.747625,27.5964444 41.686,28.6642778 40.375,28.6666667 L7.125,28.6666667 C5.814,28.6642778 4.752375,27.5964444 4.75,26.2777778 L4.75,26.2777778 Z M49.875,9.55555556 L47.5,9.55555556 L47.5,7.16666667 C47.497625,3.20827778 44.310375,0.00238888889 40.375,0 L7.125,0 C3.189625,0.00238888889 0.002375,3.20827778 0,7.16666667 L0,26.2777778 C0.002375,30.2361667 3.189625,33.4420556 7.125,33.4444444 L9.5,33.4444444 L9.5,35.8333333 C9.502375,39.7917222 12.689625,42.9976111 16.625,43 L49.875,43 C53.810375,42.9976111 56.997625,39.7917222 57,35.8333333 L57,16.7222222 C56.997625,12.7638333 53.810375,9.55794444 49.875,9.55555556 L49.875,9.55555556 Z" id="Fill-1"></path>
        </g>
    </g>
</svg>