<?xml version="1.0" encoding="UTF-8"?>
<svg width="32px" height="32px" viewBox="0 0 32 32" version="1.1" xmlns="http://www.w3.org/2000/svg" xmlns:xlink="http://www.w3.org/1999/xlink">
    <!-- Generator: Sketch 61.2 (89653) - https://sketch.com -->
    <title>icon-twitter</title>
    <desc>Created with Sketch.</desc>
    <g id="icon-twitter" stroke="none" stroke-width="1" fill="none" fill-rule="evenodd">
        <g id="Logo-blue-Copy" transform="translate(1.000000, 4.000000)" fill="#1D9BF0" fill-rule="nonzero">
            <path d="M27.428702,6.2236852 C27.4469835,6.49491808 27.4469835,6.76615096 27.4469835,7.03988368 C27.4469835,15.3806072 21.2556368,25 9.93449116,25 L9.93449116,24.9950003 C6.59018891,25 3.31535649,24.017562 0.5,22.1651789 C0.986288848,22.2251752 1.47501523,22.2551733 1.96496039,22.2564232 C4.73644119,22.258923 7.42870201,21.3052332 9.60907983,19.5490941 C6.97531993,19.4978473 4.66575259,17.7367085 3.85892748,15.1656208 C4.78153565,15.3481092 5.7321755,15.3106116 6.6377209,15.0568776 C3.76630104,14.4619152 1.70048751,11.8745785 1.70048751,8.86976817 C1.70048751,8.84226991 1.70048751,8.81602156 1.70048751,8.78977322 C2.55606338,9.27849237 3.51401584,9.54972525 4.49390615,9.57972336 C1.78945765,7.72609036 0.955819622,4.03632327 2.58897014,1.15150536 C5.71389397,5.09500644 10.3244973,7.49235512 15.2739183,7.7460891 C14.7778793,5.55372749 15.4555149,3.2563725 17.0545399,1.71521978 C19.5335161,-0.674629367 23.4323583,-0.552137099 25.7626447,1.9889525 C27.1410725,1.7102201 28.4622182,1.19150284 29.6712371,0.45654923 C29.2117611,1.917707 28.2501523,3.15887865 26.9655698,3.94757887 C28.1855576,3.80008818 29.3775137,3.46510932 30.5,2.95389159 C29.6736746,4.22381143 28.6328458,5.32999161 27.428702,6.2236852 Z" id="white_background"></path>
        </g>
    </g>
</svg>