<?xml version="1.0" encoding="UTF-8"?>
<svg width="32px" height="32px" viewBox="0 0 32 32" version="1.1" xmlns="http://www.w3.org/2000/svg" xmlns:xlink="http://www.w3.org/1999/xlink">
    <!-- Generator: Sketch 61.2 (89653) - https://sketch.com -->
    <title>icon-youtube</title>
    <desc>Created with Sketch.</desc>
    <defs>
        <polygon id="path-1" points="5.1266766e-05 0.251932347 31.1407154 0.251932347 31.1407154 22.5453759 5.1266766e-05 22.5453759"></polygon>
    </defs>
    <g id="icon-youtube" stroke="none" stroke-width="1" fill="none" fill-rule="evenodd">
        <g id="Group-10-Copy" transform="translate(0.000000, 4.000000)">
            <g id="Group-6">
                <g id="Group-3" transform="translate(0.535005, 0.000000)">
                    <mask id="mask-2" fill="white">
                        <use xlink:href="#path-1"></use>
                    </mask>
                    <g id="Clip-2"></g>
                    <path d="M30.489935,3.73302918 C30.1318367,2.36273742 29.0765103,1.28370148 27.7366534,0.917468922 C25.3081466,0.2518537 15.5702808,0.2518537 15.5702808,0.2518537 C15.5702808,0.2518537 5.8324149,0.2518537 3.4039082,0.917468922 C2.06405127,1.28370148 1.00872489,2.36273742 0.650626528,3.73302918 C5.1266766e-05,6.21669937 5.1266766e-05,11.3987459 5.1266766e-05,11.3987459 C5.1266766e-05,11.3987459 5.1266766e-05,16.5805302 0.650626528,19.0642004 C1.00872489,20.4344922 2.06405127,21.5137903 3.4039082,21.8800228 C5.8324149,22.5453759 15.5702808,22.5453759 15.5702808,22.5453759 C15.5702808,22.5453759 25.3081466,22.5453759 27.7366534,21.8800228 C29.0765103,21.5137903 30.1318367,20.4344922 30.489935,19.0642004 C31.1407666,16.5805302 31.1407666,11.3987459 31.1407666,11.3987459 C31.1407666,11.3987459 31.1407666,6.21669937 30.489935,3.73302918" id="Fill-1" fill="#FF0000" mask="url(#mask-2)"></path>
                </g>
                <polygon id="Fill-4" fill="#FFFFFF" points="13.6259143 16 21.6259143 11.272857 13.6259143 6.54545455"></polygon>
            </g>
        </g>
    </g>
</svg>