<svg id="レイヤー_1" data-name="レイヤー 1" xmlns="http://www.w3.org/2000/svg" viewBox="0 0 50 50"><defs><style>.cls-1{fill:#fff;}</style></defs><title>header_nav-icon_about</title><path class="cls-1" d="M39.23,32.61l-6.42-5.8a.75.75,0,0,0-1.06.05s0,0,0,0a2.64,2.64,0,0,0-.29-.15.89.89,0,0,0,.13-.14.75.75,0,0,0,.07-.62l-.36-1a9.05,9.05,0,0,0,3.52-7.15,9.6,9.6,0,0,0-.14-1.55,8.87,8.87,0,0,0-1-2.92h0a9,9,0,0,0-15.74,0h0l-.12.24L12.2,16.49c-.28.15-.16.51.17.51h4.35c0,.26,0,.52,0,.79a9.07,9.07,0,0,0,7.49,8.91l.16.46-.08,0a3.83,3.83,0,0,0-1.53,1.56,6.2,6.2,0,0,0-.63,1.95l-1.6,2.19-3.12-3.07a.6.6,0,0,0-.21-.14l-1.79-1.87a2.9,2.9,0,0,0-2.13-.91,2.93,2.93,0,0,0-2,.82l-.62.59a3,3,0,0,0-.91,2.13,2.93,2.93,0,0,0,.82,2l1.91,2a.68.68,0,0,0,.18.26l.42.38.82.86a.73.73,0,0,0,.37.19l5.13,4.57a2.15,2.15,0,0,0,3-.19L23.69,39l.18.6a.74.74,0,0,0,.71.54H37.5l.07,0a.4.4,0,0,0,.15,0l.13,0L38,40a.38.38,0,0,0,.11-.11s0,0,0,0h0l1.6-2.42a3.78,3.78,0,0,0,.61-2.1A3.65,3.65,0,0,0,39.23,32.61Zm-21-14.82c0-.23,0-.45,0-.68h15a5.17,5.17,0,0,1,0,.68A7.57,7.57,0,0,1,30,24.05a.74.74,0,0,0-.29.86l.24.71-4.31.68-.17-.51a.74.74,0,0,0-.62-.5A7.57,7.57,0,0,1,18.18,17.79ZM13.12,33.06l-1.55-1.62a1.41,1.41,0,0,1-.4-1,1.46,1.46,0,0,1,.45-1.05l.62-.59a1.43,1.43,0,0,1,1-.4,1.47,1.47,0,0,1,1,.44l1.47,1.54Zm1.05,1.08,2.63-2.67.31.32-2.69,2.57Zm7.06,5.41a.63.63,0,0,1-.49.22.61.61,0,0,1-.42-.16l-4.78-4.25,2.7-2.58,1.82,1.79a.74.74,0,0,0,.58.21.78.78,0,0,0,.55-.3l2-2.79a.77.77,0,0,0,.22-.31l.82-1.11a2.18,2.18,0,0,1,1.72-.9,1.73,1.73,0,0,1,.91.25,1.92,1.92,0,0,1,.59,2.8Zm3.91-.89-.28-1,3.79-4.32,0,0a3.43,3.43,0,0,0-1-5l-.38.65.38-.65a3.3,3.3,0,0,0-1-.37l.49-.17a4.82,4.82,0,0,1,1.48-.24A4.57,4.57,0,0,1,33,30.66l2.54,8Zm13.33-2.08L37.1,38.65l-2.64-8.32,3.76,3.4a2.13,2.13,0,0,1,.61,1.57A2.37,2.37,0,0,1,38.47,36.58Z"/></svg>