<?xml version="1.0" encoding="UTF-8"?>
<svg width="50px" height="50px" viewBox="0 0 50 50" version="1.1" xmlns="http://www.w3.org/2000/svg" xmlns:xlink="http://www.w3.org/1999/xlink">
    <!-- Generator: Sketch 59.1 (86144) - https://sketch.com -->
    <title>u-icon-pdf</title>
    <desc>Created with Sketch.</desc>
    <defs>
        <polygon id="path-1" points="6.95443645e-06 -2.734375e-05 28.9713477 -2.734375e-05 28.9713477 34.9999727 6.95443645e-06 34.9999727"></polygon>
    </defs>
    <g id="u-icon-pdf" stroke="none" stroke-width="1" fill="none" fill-rule="evenodd">
        <g id="Group-10" transform="translate(11.000000, 8.000000)">
            <g id="Group-3">
                <mask id="mask-2" fill="white">
                    <use xlink:href="#path-1"></use>
                </mask>
                <g id="Clip-2"></g>
                <path d="M26.7600525,29.1281758 C26.7600525,31.1705488 25.0761053,32.8258711 22.9988151,32.8258711 L5.97358969,32.8258711 C3.8953259,32.8258711 2.21137866,31.1705488 2.21137866,29.1281758 L2.21137866,10.9778047 L8.03335468,10.9778047 C9.76396619,10.9778047 11.168206,9.59851758 11.168206,7.89691602 L11.168206,2.17400586 L22.9988151,2.17400586 C25.0761053,2.17400586 26.7600525,3.82932813 26.7600525,5.87176953 L26.7600525,29.1281758 Z M22.9988151,-2.734375e-05 L11.168206,-2.734375e-05 L10.2514722,-2.734375e-05 L9.60366643,0.636603516 L0.647743165,9.44053906 L6.95443645e-06,10.0772383 L6.95443645e-06,10.977873 L6.95443645e-06,29.1282441 C6.95443645e-06,32.3657441 2.67941223,34.9999727 5.97358969,34.9999727 L22.9988151,34.9999727 C26.2919494,34.9999727 28.9713547,32.3657441 28.9713547,29.1282441 L28.9713547,5.87176953 C28.9713547,2.6336543 26.2919494,-2.734375e-05 22.9988151,-2.734375e-05 L22.9988151,-2.734375e-05 Z" id="Fill-1" fill="#E22020" mask="url(#mask-2)"></path>
            </g>
            <path d="M8.59261127,21.7111335 L7.4969814,21.7111335 C7.45771797,21.7111335 7.43761797,21.6936831 7.43761797,21.6589753 L7.43761797,20.1631286 C7.43761797,20.1280345 7.45771797,20.1106484 7.4969814,20.1106484 L8.59261127,20.1106484 C9.19921329,20.1106484 9.56137343,20.4342871 9.56137343,20.9154307 C9.56144547,21.3963811 9.19921329,21.7111335 8.59261127,21.7111335 M8.68108007,19 L6.62576546,19 C6.23442791,19 6,19.2275001 6,19.5683316 L6,24.3175642 C6,24.7288416 6.30286875,25 6.72338372,25 C7.13482126,25 7.43761797,24.728906 7.43761797,24.3175642 L7.43761797,22.8747129 C7.43761797,22.8396188 7.45771797,22.8221039 7.4969814,22.8221039 L8.68108007,22.8221039 C10.1287841,22.8221039 11,22.0348365 11,20.9153663 C11.000072,19.7782524 10.1388701,19 8.68108007,19" id="Fill-4" fill="#E22020"></path>
            <path d="M15.439988,23.1648098 C15.2746198,23.6410498 14.8003453,23.8442524 14.1408698,23.8442524 L13.4823931,23.8442524 C13.4435123,23.8442524 13.4235368,23.8266476 13.4235368,23.791308 L13.4235368,20.2088219 C13.4235368,20.1734174 13.4435123,20.1558125 13.4823931,20.1558125 L14.1408698,20.1558125 C14.8003453,20.1558125 15.2746198,20.3590152 15.439988,20.8353201 C15.5076906,21.0385228 15.555489,21.391334 15.555489,22.0000325 C15.555489,22.608731 15.5076192,22.9616072 15.439988,23.1648098 M14.1796793,19 L12.6196673,19 C12.2321434,19 12,19.2295125 12,19.5733589 L12,24.4353461 C12,24.7795823 12.232072,25 12.6196673,25 L14.1796793,25 C15.584382,25 16.4571669,24.5940494 16.80581,23.614805 C16.9312987,23.2704388 17,22.8559132 17,21.9999675 C17,21.1441518 16.9312273,20.7295612 16.80581,20.38526 C16.4570956,19.4060155 15.584382,19 14.1796793,19" id="Fill-6" fill="#E22020"></path>
            <path d="M22.410743,19 L19.5545198,19 C19.2082955,19 19,19.2275001 19,19.5683316 L19,24.3175642 C19,24.7288416 19.2688465,25 19.6408847,25 C20.0039996,25 20.2727823,24.728906 20.2727823,24.3175642 L20.2727823,22.620683 C20.2727823,22.5860396 20.2896729,22.5685248 20.32441,22.5685248 L21.9870771,22.5685248 C22.3591153,22.5685248 22.575378,22.3410891 22.575378,22.0173217 C22.575378,21.6936187 22.3591153,21.4665694 21.9870771,21.4665694 L20.32441,21.4665694 C20.2896729,21.4665694 20.2727823,21.4490545 20.2727823,21.4139604 L20.2727823,20.1631286 C20.2727823,20.1280345 20.2896729,20.1106484 20.32441,20.1106484 L22.410743,20.1106484 C22.7658907,20.1106484 23,19.8745841 23,19.5598317 C22.9999363,19.2359999 22.7658269,19 22.410743,19" id="Fill-8" fill="#E22020"></path>
        </g>
    </g>
</svg>