<?xml version="1.0" encoding="UTF-8"?>
<svg width="69px" height="69px" viewBox="0 0 69 69" version="1.1" xmlns="http://www.w3.org/2000/svg" xmlns:xlink="http://www.w3.org/1999/xlink">
    <!-- Generator: Sketch 59.1 (86144) - https://sketch.com -->
    <title>u-icon-facebook</title>
    <desc>Created with Sketch.</desc>
    <defs>
        <polygon id="path-1" points="0.0029296875 0.00196463654 50 0.00196463654 50 49.9891945 0.0029296875 49.9891945"></polygon>
    </defs>
    <g id="u-icon-facebook" stroke="none" stroke-width="1" fill="none" fill-rule="evenodd">
        <g id="f_logo_RGB-Blue_1024" transform="translate(10.000000, 10.000000)">
            <g id="Group-3">
                <mask id="mask-2" fill="white">
                    <use xlink:href="#path-1"></use>
                </mask>
                <g id="Clip-2"></g>
                <path d="M50,25.1473477 C50,11.2588409 38.8071289,0 25,0 C11.1928711,0 0,11.2588409 0,25.1473477 C0,37.6991159 9.14213867,48.1026523 21.09375,49.9891945 L21.09375,32.4165029 L14.7460937,32.4165029 L14.7460937,25.1473477 L21.09375,25.1473477 L21.09375,19.6070727 C21.09375,13.3045187 24.8260742,9.82318271 30.5366211,9.82318271 C33.2718262,9.82318271 36.1328125,10.3143418 36.1328125,10.3143418 L36.1328125,16.502947 L32.9803711,16.502947 C29.8747559,16.502947 28.90625,18.4414047 28.90625,20.4301081 L28.90625,25.1473477 L35.8398437,25.1473477 L34.7314453,32.4165029 L28.90625,32.4165029 L28.90625,49.9891945 C40.8578613,48.1026523 50,37.6991159 50,25.1473477" id="Fill-1" fill="#1877F2" mask="url(#mask-2)"></path>
            </g>
            <path d="M34.7947174,32.101607 L35.9116675,24.8242384 L28.9245788,24.8242384 L28.9245788,20.1016687 C28.9245788,18.1107183 29.900557,16.1700703 33.030133,16.1700703 L36.2068966,16.1700703 L36.2068966,9.97447272 C36.2068966,9.97447272 33.3238368,9.48275862 30.5675287,9.48275862 C24.8129232,9.48275862 21.0518029,12.9680281 21.0518029,19.2777034 L21.0518029,24.8242384 L14.6551724,24.8242384 L14.6551724,32.101607 L21.0518029,32.101607 L21.0518029,49.6941538 C22.3344257,49.8952649 23.6490316,50 24.9881908,50 C26.32735,50 27.641956,49.8952649 28.9245788,49.6941538 L28.9245788,32.101607 L34.7947174,32.101607" id="Fill-4" fill="#FFFFFE"></path>
        </g>
    </g>
</svg>