<svg id="レイヤー_1" data-name="レイヤー 1" xmlns="http://www.w3.org/2000/svg" viewBox="0 0 50 50"><defs><style>.cls-1{fill:#fff;}</style></defs><title>header_nav-icon_member</title><path class="cls-1" d="M37.81,24.62V24a8,8,0,1,0-10.2-11.82,7.79,7.79,0,0,0-5.22,0,8,8,0,1,0-9.18,12.29h-.49a.94.94,0,0,0-.16,0l-.24.1a9.48,9.48,0,0,0-5.75,8.71V39A2.41,2.41,0,0,0,9,41.37h6.53a2.41,2.41,0,0,0,2.4,2.22H32.08a2.42,2.42,0,0,0,2.4-2.22H41A2.41,2.41,0,0,0,43.43,39V33.27A9.47,9.47,0,0,0,37.81,24.62ZM40.41,17a6.46,6.46,0,0,1-6.48,6.47,6.25,6.25,0,0,1-1.79-.26A8.09,8.09,0,0,0,33,19.66,8,8,0,0,0,32,16h8.28A6.8,6.8,0,0,1,40.41,17ZM29.05,12.74h9.77a6.42,6.42,0,0,1,1.07,1.7H31a8,8,0,0,0-2-1.67ZM26.88,14.8c.48,1.36,2.9,3.81,4.59,5a6.54,6.54,0,0,1-.72,2.82c-.07.15-.16.28-.24.42s-.29.43-.45.64c0,.06-.09.13-.15.19s-.21.25-.33.37a6.42,6.42,0,0,1-3.8,1.84H24.22a6.42,6.42,0,0,1-3.8-1.84c-.12-.12-.23-.25-.33-.37a6.22,6.22,0,0,1-.84-1.25,6.51,6.51,0,0,1-.73-3,4.4,4.4,0,0,1,.05-.51C22.14,18.47,26.3,16,26.88,14.8ZM26.76,29l.64-1.76a6.87,6.87,0,0,0,.68-.27L26.82,29.7v-.41A.67.67,0,0,0,26.76,29Zm2.42-.83,1,1.2-2.83,2.67Zm-4.5,4.76V30h.64v2.9l-.08.17h-.48Zm.67-4.44h-.7l-.33-.92h0c.22,0,.43.05.66.05s.45,0,.68,0Zm-4.53-.32,1.8,3.87-2.83-2.67Zm-1.19-1.33a1.92,1.92,0,0,0,.13-.17,2.48,2.48,0,0,0,.17-.37c.09.06.2.09.29.15l.19-.1-.13.15-.06-.05C20,26.58,19.83,26.72,19.63,26.85Zm2.3.14c.22.1.44.19.67.27L23.24,29a.67.67,0,0,0-.06.28v.41ZM11.49,12.41a6.47,6.47,0,0,1,9.16,0l.33.37A7.9,7.9,0,0,0,19.42,14H10.34A6.77,6.77,0,0,1,11.49,12.41Zm5.9,13.3a1,1,0,0,0,.24.15.72.72,0,0,0,.29.06h.54v0a1.68,1.68,0,0,1-.84.69,4.38,4.38,0,0,1-1.55.25,3.57,3.57,0,0,1-1.91-.44,1.52,1.52,0,0,1-.48-.5v0h.54a.72.72,0,0,0,.29-.06,1,1,0,0,0,.24-.15.77.77,0,0,0,.22-.54v-.29a7.91,7.91,0,0,0,1.1.08,8,8,0,0,0,1.1-.08v.29A.77.77,0,0,0,17.39,25.71Zm.44-9.5a14.26,14.26,0,0,1-1.67.09,12,12,0,0,1-4.74-.83h6.81A6.44,6.44,0,0,0,17.83,16.21Zm-6.34,5.35A6.44,6.44,0,0,1,9.59,17a6.16,6.16,0,0,1,.05-.75,12,12,0,0,0,6.52,1.56c.39,0,.75,0,1.1,0A8.36,8.36,0,0,0,17,19.66a8.09,8.09,0,0,0,.84,3.54,6.25,6.25,0,0,1-1.79.26A6.42,6.42,0,0,1,11.49,21.56Zm4,13.1v5.22H9A.93.93,0,0,1,8.07,39V33.27a8,8,0,0,1,4.15-7,2.66,2.66,0,0,0,.16.39A3.13,3.13,0,0,0,14,28a5.64,5.64,0,0,0,2.11.36,5.7,5.7,0,0,0,2.2-.41A9.46,9.46,0,0,0,15.5,34.66ZM17,41.37a.65.65,0,0,1,0-.2V34.66a8,8,0,0,1,1.41-4.53l6,5.7a.39.39,0,0,0,.14.08v6.18H17.92A.91.91,0,0,1,17,41.37Zm16-1.49v1.29a1.18,1.18,0,0,1,0,.2.91.91,0,0,1-.88.72H25.57V35.83h0l6-5.7A8,8,0,0,1,33,34.66ZM41.93,39a.93.93,0,0,1-.92.92H34.5V34.66a9.49,9.49,0,0,0-4.72-8.2l-.06.05-.13-.15.19.1a8.65,8.65,0,0,1,1.29-.65.75.75,0,0,0,.48-.7v-.63h4.76v.63a.75.75,0,0,0,.48.7,8,8,0,0,1,5.14,7.46Z"/></svg>