<svg id="レイヤー_1" data-name="レイヤー 1" xmlns="http://www.w3.org/2000/svg" viewBox="0 0 50 50"><defs><style>.cls-1{fill:#fff;}</style></defs><title>header_nav-icon_event</title><path class="cls-1" d="M40.67,18.49,42.17,17l-2.09.36a23.75,23.75,0,0,1-3.83.45,5.75,5.75,0,0,1-2.87-.68,16.31,16.31,0,0,1-3.19-2.49,7.6,7.6,0,0,0-3.32-1.71,14.34,14.34,0,0,0-3.64-.42,23.37,23.37,0,0,0-4.16.39,3.36,3.36,0,0,0-.44-.62,2.21,2.21,0,0,0-.65-.53,2,2,0,0,0-1-.27,2.38,2.38,0,0,0-1.33.43l-.23.15-.08.26-7.51,24v.12a1.7,1.7,0,0,0,.28.93,2.33,2.33,0,0,0,1,.83,2.82,2.82,0,0,0,1.17.27,2,2,0,0,0,.66-.11,1.4,1.4,0,0,0,.62-.45l0-.05,0,0,.1-.24c.13-.32.33-.91.6-1.73.78-2.4,2.12-6.73,3.41-10.94a29.82,29.82,0,0,1,5.59-.8,7.5,7.5,0,0,1,5.46,2.11,15.81,15.81,0,0,0,10.48,3.86c.37,0,.59,0,.61,0l1-.07-3-6.27.11-.14C36.67,22.73,38.5,20.67,40.67,18.49ZM11.11,34.67c-.23.72-.43,1.32-.58,1.76-.07.22-.14.4-.19.53l0,0h-.07a1.22,1.22,0,0,1-.68-.22.53.53,0,0,1-.2-.19l0-.07,7.33-23.48A.89.89,0,0,1,17,13a.54.54,0,0,1,.27.07,1.3,1.3,0,0,1,.37.37h0l-1,3.32c-1,3.28-2.5,8.23-3.8,12.45C12.18,31.3,11.57,33.22,11.11,34.67ZM21.29,22.81a25.64,25.64,0,0,0-5,.66L19,14.28a20.67,20.67,0,0,1,4.19-.43,13.66,13.66,0,0,1,3.31.37,6.39,6.39,0,0,1,2.74,1.41,17.32,17.32,0,0,0,3.47,2.68,7,7,0,0,0,3.5.84A17.67,17.67,0,0,0,38.31,19c-2.23,2.33-3.84,4.22-3.84,4.23l-.28.33,2.53,5.22a14.4,14.4,0,0,1-9.06-3.49A8.86,8.86,0,0,0,21.29,22.81Z"/></svg>