<svg id="レイヤー_1" data-name="レイヤー 1" xmlns="http://www.w3.org/2000/svg" viewBox="0 0 50 50"><defs><style>.cls-1{fill:#fff;}</style></defs><title>header_nav-icon_login</title><path class="cls-1" d="M28.92,26.89A3.91,3.91,0,1,0,23,30.26v3.43a.75.75,0,0,0,.75.75h2.44a.75.75,0,0,0,.75-.75V30.26A3.89,3.89,0,0,0,28.92,26.89Zm-3,2.22a.75.75,0,0,0-.46.7v3.13h-.94V29.81a.75.75,0,0,0-.46-.7,2.41,2.41,0,1,1,1.86,0Z"/><path class="cls-1" d="M37.71,21.44a.91.91,0,0,0-.18-.42,1.79,1.79,0,0,0-.82-.52A9.5,9.5,0,0,0,34.64,20c0-.13,0-.26,0-.4a8.68,8.68,0,0,0-2.85-6.38,10.18,10.18,0,0,0-13.61,0,8.68,8.68,0,0,0-2.85,6.38c0,.14,0,.25,0,.38l-1,.18a5,5,0,0,0-1.56.54,1.64,1.64,0,0,0-.38.36.84.84,0,0,0-.15.46V37.34a.84.84,0,0,0,.15.47,1.58,1.58,0,0,0,.8.58,12.89,12.89,0,0,0,3.33.66,82.32,82.32,0,0,0,8.36.33,56.54,56.54,0,0,0,10.64-.66,5.19,5.19,0,0,0,1.59-.53,1.53,1.53,0,0,0,.38-.33.81.81,0,0,0,.18-.43v-16ZM19.22,14.33a8.69,8.69,0,0,1,11.58,0,7.23,7.23,0,0,1,2.36,5.18H32a2.26,2.26,0,0,0,0-.26A6.31,6.31,0,0,0,30,14.58a7.42,7.42,0,0,0-9.92,0A6.35,6.35,0,0,0,18,19.25c0,.09,0,.17,0,.26H16.86A7.19,7.19,0,0,1,19.22,14.33Zm.24,4.92a4.86,4.86,0,0,1,1.6-3.57,5.94,5.94,0,0,1,7.89,0,4.86,4.86,0,0,1,1.6,3.57c0,.13,0,.26,0,.38-1.51-.07-3.34-.12-5.6-.12s-4,0-5.42.11C19.49,19.5,19.46,19.38,19.46,19.25ZM36.22,37a8.22,8.22,0,0,1-2.06.47,70.18,70.18,0,0,1-9.24.44c-5.91,0-8.86-.32-10.24-.63a4.13,4.13,0,0,1-.9-.26V21.9a9.35,9.35,0,0,1,2.29-.5A75.54,75.54,0,0,1,24.92,21a54.93,54.93,0,0,1,10.32.63,4.4,4.4,0,0,1,1,.28Z"/></svg>