<svg id="レイヤー_1" data-name="レイヤー 1" xmlns="http://www.w3.org/2000/svg" viewBox="0 0 50 50"><defs><style>.cls-1{fill:#fff;}</style></defs><title>header_nav-icon_access</title><path class="cls-1" d="M25,39.42l.65-.39L16,25.89l-.65.39.67-.34a10.13,10.13,0,0,1,1.69-11.45L17.12,14l.53.53h0v0A10.1,10.1,0,0,1,34,25.93l.67.34-.64-.39L24.36,39l.64.39.65-.39-.65.39.65.39,9.69-13.15,0-.06a11.59,11.59,0,0,0-18.8-13.14l.55.52-.53-.53h0l0,0a11.61,11.61,0,0,0-1.94,13.14l0,.05,9.7,13.15a.76.76,0,0,0,1.29,0Zm0-22.14v-.75a5,5,0,1,0,5,5,5,5,0,0,0-5-5V18a3.52,3.52,0,1,1-3.51,3.52A3.51,3.51,0,0,1,25,18Z"/></svg>