<?xml version="1.0" encoding="UTF-8"?>
<svg width="50px" height="50px" viewBox="0 0 50 50" version="1.1" xmlns="http://www.w3.org/2000/svg" xmlns:xlink="http://www.w3.org/1999/xlink">
    <!-- Generator: Sketch 59.1 (86144) - https://sketch.com -->
    <title>u-icon-excel</title>
    <desc>Created with Sketch.</desc>
    <defs>
        <polygon id="path-1" points="7.61743547e-06 -3.125e-05 31.733322 -3.125e-05 31.733322 39.9999687 7.61743547e-06 39.9999687"></polygon>
    </defs>
    <g id="u-icon-excel" stroke="none" stroke-width="1" fill="none" fill-rule="evenodd">
        <g id="Group-12" transform="translate(9.000000, 5.000000)">
            <g id="Group-3">
                <mask id="mask-2" fill="white">
                    <use xlink:href="#path-1"></use>
                </mask>
                <g id="Clip-2"></g>
                <path d="M29.3112137,33.2893438 C29.3112137,35.6234844 27.4667279,37.5152813 25.1913999,37.5152813 L6.54300381,37.5152813 C4.26660939,37.5152813 2.42212357,35.6234844 2.42212357,33.2893438 L2.42212357,12.5460625 L8.79921202,12.5460625 C10.6948108,12.5460625 12.2329234,10.9697344 12.2329234,9.02504688 L12.2329234,2.48457813 L25.1913999,2.48457813 C27.4667279,2.48457813 29.3112137,4.376375 29.3112137,6.71059375 L29.3112137,33.2893438 Z M25.1913999,-3.125e-05 L12.2329234,-3.125e-05 L11.2287169,-3.125e-05 L10.5192289,0.727546875 L0.709495556,10.7891875 L7.61743547e-06,11.5168438 L7.61743547e-06,12.5461406 L7.61743547e-06,33.2894219 C7.61743547e-06,36.9894219 2.93477698,39.9999688 6.54300381,39.9999688 L25.1913999,39.9999688 C28.7984841,39.9999688 31.7333297,36.9894219 31.7333297,33.2894219 L31.7333297,6.71059375 C31.7333297,3.00989063 28.7984841,-3.125e-05 25.1913999,-3.125e-05 L25.1913999,-3.125e-05 Z" id="Fill-1" fill="#3EAF3E" mask="url(#mask-2)"></path>
            </g>
            <path d="M9.1310968,24.0229591 L10.2658921,22.445263 C10.388276,22.2677613 10.4557756,22.0775996 10.4557756,21.9001852 C10.4557756,21.5087734 10.1663631,21.1764706 9.76595307,21.1764706 C9.53142487,21.1764706 9.29804352,21.2948633 9.11962842,21.544134 L8.24106926,22.7773912 L8.22968281,22.7773912 L7.35112364,21.544134 C7.17270855,21.2948633 6.9393272,21.1764706 6.70594584,21.1764706 C6.30553584,21.1764706 6.01620522,21.5087734 6.01620522,21.9001852 C6.01620522,22.0775996 6.08255794,22.2677613 6.20494184,22.445263 L7.33973719,24.0229591 L6.07108957,25.7895945 C5.94870566,25.9675328 5.88235294,26.1571707 5.88235294,26.3351962 C5.88235294,26.7266954 6.17176548,27.0588235 6.57209356,27.0588235 C6.805393,27.0588235 7.0399212,26.9399943 7.21727137,26.6913347 L8.22960089,25.2678285 L8.24098734,25.2678285 L9.25331687,26.6913347 C9.43181388,26.9399943 9.66511332,27.0588235 9.89849467,27.0588235 C10.2989047,27.0588235 10.5882353,26.7266954 10.5882353,26.3351962 C10.5882353,26.1571707 10.5218826,25.9676201 10.3994987,25.7895945 L9.1310968,24.0229591 Z" id="Fill-4" fill="#3EAF3E"></path>
            <path d="M13.5395344,25.606531 C13.3124676,25.5593946 13.2095316,25.416233 13.2095316,25.0834744 L13.2095316,19.7044899 C13.2095316,19.1569013 12.8997362,18.8235294 12.4871567,18.8235294 C12.0638659,18.8235294 11.7647059,19.1569013 11.7647059,19.7044899 L11.7647059,25.2260227 C11.7647059,26.404258 12.157154,27.0588235 13.3019081,27.0588235 L13.3645053,27.0588235 C13.8906562,27.0588235 14.1176471,26.7370167 14.1176471,26.3326773 C14.1176471,25.963734 13.9521899,25.6902902 13.5395344,25.606531" id="Fill-6" fill="#3EAF3E"></path>
            <path d="M18.2262081,23.4199062 L17.6416234,23.349978 C17.0354596,23.280649 16.9040376,23.1407927 16.9040376,22.8850456 C16.9040376,22.617915 17.1023064,22.4433941 17.5758313,22.4433941 C17.9610114,22.4433941 18.3246935,22.524706 18.6555201,22.6878431 C18.8650652,22.7924358 18.9862656,22.8271003 19.0961895,22.8271003 C19.4597094,22.8271003 19.7021911,22.5479012 19.7021911,22.1876471 C19.7021911,21.9085336 19.5482164,21.7113311 19.2502454,21.5481939 C18.7992731,21.3043441 18.226127,21.1764706 17.6301037,21.1764706 C16.2311081,21.1764706 15.4267566,21.8852528 15.4267566,22.9896383 C15.4267566,23.9661503 16.0102055,24.570939 17.1680174,24.7101962 L17.7513041,24.7801243 C18.3800206,24.8499669 18.5228001,24.9893096 18.5228001,25.2570395 C18.5228001,25.5708174 18.2588203,25.7800028 17.6970316,25.7800028 C17.1792937,25.7800028 16.7713987,25.605482 16.3851639,25.3729302 C16.2095289,25.2683375 16.0769711,25.2217758 15.9330559,25.2217758 C15.5807313,25.2217758 15.2941176,25.5127865 15.2941176,25.8731262 C15.2941176,26.1402569 15.4040416,26.3494422 15.6690761,26.523963 C16.1098266,26.8144601 16.7827561,27.0588235 17.619882,27.0588235 C19.1288828,27.0588235 20,26.2801132 20,25.1290804 C20.0001622,24.1872328 19.4825054,23.5710605 18.2262081,23.4199062" id="Fill-8" fill="#3EAF3E"></path>
            <path d="M23.2487127,24.0229591 L24.3835504,22.445263 C24.5059301,22.2677613 24.5733454,22.0775996 24.5733454,21.9001852 C24.5733454,21.5087734 24.2840248,21.1764706 23.8836288,21.1764706 C23.6492726,21.1764706 23.4157355,21.2948633 23.2373266,21.544134 L22.3588799,22.7773912 L22.3473301,22.7773912 L21.4688015,21.544134 C21.2903926,21.2948633 21.0570194,21.1764706 20.8237281,21.1764706 C20.4232501,21.1764706 20.1339295,21.5087734 20.1339295,21.9001852 C20.1339295,22.0775996 20.200198,22.2677613 20.3225777,22.445263 L21.4572516,24.0229591 L20.188812,25.7895945 C20.0663504,25.9675328 20,26.1571707 20,26.3351962 C20,26.7266954 20.2894844,27.0588235 20.6897985,27.0588235 C20.9230898,27.0588235 21.1576918,26.9399943 21.3349539,26.6913347 L22.3471662,25.2678285 L22.3587161,25.2678285 L23.3709285,26.6913347 C23.5494193,26.9399943 23.7827925,27.0588235 24.0160838,27.0588235 C24.4164799,27.0588235 24.7058824,26.7266954 24.7058824,26.3351962 C24.7058824,26.1571707 24.6395319,25.9676201 24.5171523,25.7895945 L23.2487127,24.0229591 Z" id="Fill-10" fill="#3EAF3E"></path>
        </g>
    </g>
</svg>