<svg id="レイヤー_1" data-name="レイヤー 1" xmlns="http://www.w3.org/2000/svg" viewBox="0 0 50 50"><defs><style>.cls-1{fill:#fff;}</style></defs><title>header_nav-icon_junior-sports</title><path class="cls-1" d="M21.18,23.39c1.32,0,2.59,0,3.87,0,.27,0,.37-.07.39-.36s-.09-.47-.45-.47c-1.24,0-2.47,0-3.71,0-.61,0-.61,0-.69-.69h8.93a4.55,4.55,0,0,1-3.47,3.67A4.44,4.44,0,0,1,21.18,23.39Z"/><path class="cls-1" d="M25.46,19.49V16.57a4.3,4.3,0,0,1,3.83,2.92Z"/><path class="cls-1" d="M22.31,17.33c.5-.22,1-.45,1.49-.65a4.41,4.41,0,0,1,.81-.18v3H20.8a3.85,3.85,0,0,1,1.14-1.76c.13-.13.26-.27.38-.41Z"/><path class="cls-1" d="M20.56,20.33h8.52c.54,0,.6.1.49.71H21.05C20.41,21,20.4,21,20.56,20.33Z"/><path class="cls-1" d="M35.79,19.87a7.21,7.21,0,0,0-2.75-3c-.18-.11-.35-.2-.34-.49a7,7,0,0,0-.48-2.64,7.64,7.64,0,0,0-14.78,2.52.73.73,0,0,1-.3.51,3.62,3.62,0,0,0-.32.22v-.19a.73.73,0,0,0-.24-.54.73.73,0,0,0-.56-.19,12.68,12.68,0,0,0-3,.52,5.22,5.22,0,0,0-2.94,2.17,3.36,3.36,0,0,0-.22.42A14.82,14.82,0,0,1,14.83,9.08.75.75,0,0,0,14.89,8,.76.76,0,0,0,13.83,8a16.71,16.71,0,0,0-4,5.43A6.91,6.91,0,0,0,9,11,6.31,6.31,0,0,0,4.46,8a.76.76,0,0,0-.89.63,16.58,16.58,0,0,0-.15,2,7.12,7.12,0,0,0,.3,2.17,5.08,5.08,0,0,0,1.77,2.48A11.85,11.85,0,0,0,8.68,16.9a15.87,15.87,0,0,0,.68,8.94,5.32,5.32,0,0,0-2-.39,11.51,11.51,0,0,0-3.78.8.73.73,0,0,0-.45.44.74.74,0,0,0,.05.63,9.16,9.16,0,0,0,1.57,2,6.69,6.69,0,0,0,4.61,2,6.93,6.93,0,0,0,2.83-.67,17,17,0,0,0,3.41,3.08v-.55a.75.75,0,0,1,.75-.75h0a15,15,0,0,1-6.09-8.8,9.32,9.32,0,0,0,2.88-.79l.32-.17a7.68,7.68,0,0,0,.68,3.88,7.58,7.58,0,0,0,10.6,3.5.62.62,0,0,1,.5,0,7.7,7.7,0,0,0,3.47,1,7.53,7.53,0,0,0,6.9-3.83A7.43,7.43,0,0,0,35.79,19.87ZM8.41,15.19a6.76,6.76,0,0,1-2.56-1.62,3.26,3.26,0,0,1-.7-1.23,5.61,5.61,0,0,1-.23-1.71c0-.29,0-.62,0-1a4.54,4.54,0,0,1,2.71,2.05,6.26,6.26,0,0,1,.75,3.09C8.43,15,8.42,15.07,8.41,15.19Zm.95,14.64a5.21,5.21,0,0,1-3.57-1.6A9.1,9.1,0,0,1,5,27.36,8.17,8.17,0,0,1,7.36,27a3.67,3.67,0,0,1,2.24.71,7.71,7.71,0,0,1,1.62,1.74l0,0A5,5,0,0,1,9.36,29.83Zm2.07-7.94a7.07,7.07,0,0,1-.95.2,10.17,10.17,0,0,1,.45-1.63,3.72,3.72,0,0,1,1.68-2.05,7.2,7.2,0,0,1,2.66-.74,6,6,0,0,1-.18.92A7.36,7.36,0,0,0,14,20.46,6.08,6.08,0,0,1,11.43,21.89Zm22.93,4.56a6.06,6.06,0,0,1-8,2.47l1.08-1.39a.5.5,0,0,0,.06-.59c-.21-.48-.41-1-.65-1.53A6.13,6.13,0,0,1,25,28.06a6.41,6.41,0,0,1-1.83-2.69c-.28.64-.53,1.19-.76,1.75l.11.29,1.09,1.49a6,6,0,0,1-7.73-2.18,6.2,6.2,0,0,1-.65-5.39c.14-.15.29-.31.42-.48a5.8,5.8,0,0,0,.8-1.57,5.57,5.57,0,0,1,1.16-1c.16.44.34.88.49,1.31a.93.93,0,0,0,1,.76,10,10,0,0,1,1.32.16,6.29,6.29,0,0,1-1.38-3,6.5,6.5,0,0,1,3.27-.23c-.3-.4-.62-.8-.9-1.22a.73.73,0,0,0-.8-.38c-.53.09-1.06.15-1.66.23a6.16,6.16,0,0,1,9.3-4.77,6,6,0,0,1,3,4.82c-.48-.08-.9-.13-1.31-.22a1.06,1.06,0,0,0-1.32.52,8.59,8.59,0,0,1-.71,1,6.22,6.22,0,0,1,3.23.29,6.09,6.09,0,0,1-1.39,2.92c.67-.08,1.27-.14,1.86-.22.09,0,.18-.16.23-.26.24-.55.47-1.11.71-1.66A6,6,0,0,1,34.36,26.45Z"/><path class="cls-1" d="M22.32,17.32h0Z"/><path class="cls-1" d="M46.87,26.69a.73.73,0,0,0-.45-.44,11.51,11.51,0,0,0-3.78-.8,5.41,5.41,0,0,0-2,.39,15.78,15.78,0,0,0,.69-8.94,9.45,9.45,0,0,0,4-2.33,4.89,4.89,0,0,0,1-1.77,7.12,7.12,0,0,0,.3-2.17,16.58,16.58,0,0,0-.15-2A.76.76,0,0,0,45.54,8,6.31,6.31,0,0,0,41,11a6.91,6.91,0,0,0-.83,2.42,16.71,16.71,0,0,0-4-5.43A.76.76,0,0,0,35.11,8a.75.75,0,0,0,.06,1.06,14.87,14.87,0,0,1,4.94,10.08,5,5,0,0,0-2-2.05,9.79,9.79,0,0,0-4.14-1,.74.74,0,0,0-.8.73V17a6.43,6.43,0,0,0,1.16,3.85,7,7,0,0,0,3.82,2.48,11.33,11.33,0,0,0,1.58.31,14.68,14.68,0,0,1-2.06,4.72l-.29.4a15.29,15.29,0,0,1-3.76,3.68H34a.75.75,0,0,1,.75.75v.29a16.38,16.38,0,0,0,3.06-2.82,6.77,6.77,0,0,0,2.83.67,6.69,6.69,0,0,0,4.61-2,9.16,9.16,0,0,0,1.57-2A.74.74,0,0,0,46.87,26.69Zm-4.55-15A4.54,4.54,0,0,1,45,9.67c0,.34,0,.67,0,1a5.61,5.61,0,0,1-.23,1.71,3.54,3.54,0,0,1-1.26,1.76,9.1,9.1,0,0,1-2,1.09c0-.12,0-.24,0-.38A6.26,6.26,0,0,1,42.32,11.72Zm-5,9.7a4.7,4.7,0,0,1-1.86-1.53,4.6,4.6,0,0,1-.77-2.23,11.07,11.07,0,0,1,1.76.36,3.75,3.75,0,0,1,2.14,1.56,7.48,7.48,0,0,1,.89,2.51A7.13,7.13,0,0,1,37.36,21.42Zm6.77,6.88a5.17,5.17,0,0,1-3.49,1.53,5,5,0,0,1-1.89-.39l0-.05a7.62,7.62,0,0,1,1.61-1.73A3.67,3.67,0,0,1,42.64,27a8.29,8.29,0,0,1,2.35.41A8.77,8.77,0,0,1,44.13,28.3Z"/><path class="cls-1" d="M34.53,32.66a.75.75,0,0,0-.53-.22H26.7a.74.74,0,0,0-.38.12l-.13-.07a2.9,2.9,0,0,0-1.14-.23,2.87,2.87,0,0,0-1.14.23l-.14.07a.71.71,0,0,0-.37-.12H16.1a.75.75,0,0,0-.75.75V36.1a.75.75,0,0,0,.75.75h2.23l-2.7,2.31a.75.75,0,0,0,0,1.15l2.13,1.75a.75.75,0,0,0,1,0l5-4.25h0a3.22,3.22,0,0,0,.61.24l.05,0a3.1,3.1,0,0,0,.69.08,3,3,0,0,0,.68-.08l.06,0a3.13,3.13,0,0,0,.6-.24h0l5,4.25a.77.77,0,0,0,1,0l2.13-1.75a.79.79,0,0,0,.28-.58.74.74,0,0,0-.27-.57l-2.69-2.31H34a.75.75,0,0,0,.75-.75V33.19A.75.75,0,0,0,34.53,32.66ZM16.85,35.35V33.94h5.54a2.45,2.45,0,0,0-.18.54l0,.13a2.8,2.8,0,0,0-.07.59l0,.15H16.85Zm5.66,1.5L18.25,40.5l-1-.79,3.34-2.86,1.52-1.3-1.52,1.3Zm3-.32h0a1.33,1.33,0,0,1-.49.09h0a1.39,1.39,0,0,1-.5-.09h0a1.27,1.27,0,0,1-.42-.25,1.41,1.41,0,0,1-.51-1.08h0a1.68,1.68,0,0,1,.07-.39l.1-.24a1.4,1.4,0,0,1,.35-.45l.07-.06.18-.12a1.26,1.26,0,0,1,.38-.15,1.36,1.36,0,0,1,.29,0,1.43,1.43,0,0,1,.29,0,1.37,1.37,0,0,1,.38.15l.18.12.07.06a1.56,1.56,0,0,1,.35.45l.1.24a1.68,1.68,0,0,1,.07.39h0A1.41,1.41,0,0,1,26,36.28,1.27,1.27,0,0,1,25.56,36.53Zm7.25,3.18-1,.79-4.26-3.65h1.87L28,35.55l1.51,1.3Zm.44-5.26v.9H28l0-.15a2.8,2.8,0,0,0-.07-.59l0-.13a3.13,3.13,0,0,0-.19-.54h5.55Z"/></svg>