<svg id="レイヤー_1" data-name="レイヤー 1" xmlns="http://www.w3.org/2000/svg" viewBox="0 0 50 50"><defs><style>.cls-1{fill:#fff;}</style></defs><title>header_nav-icon_contact</title><path class="cls-1" d="M36.23,14.5H13.77a2,2,0,0,0-2,2v17a2,2,0,0,0,2,2H36.23a2,2,0,0,0,2-2v-17A2,2,0,0,0,36.23,14.5ZM13.77,15.78H36.23a.73.73,0,0,1,.73.73v1.9L25,26.73,13,18.65V16.51A.73.73,0,0,1,13.77,15.78ZM36.23,34.22H13.77a.73.73,0,0,1-.73-.73V20.19L24.69,28a.65.65,0,0,0,.72,0L37,20V33.49A.73.73,0,0,1,36.23,34.22Z"/></svg>