<?xml version="1.0" encoding="UTF-8"?>
<svg width="50px" height="50px" viewBox="0 0 50 50" version="1.1" xmlns="http://www.w3.org/2000/svg" xmlns:xlink="http://www.w3.org/1999/xlink">
    <!-- Generator: Sketch 61.2 (89653) - https://sketch.com -->
    <title>u-icon-external--white</title>
    <desc>Created with Sketch.</desc>
    <g id="u-icon-external--white" stroke="none" stroke-width="1" fill="none" fill-rule="evenodd">
        <g id="Group-3-Copy-2" transform="translate(3.000000, 9.000000)" fill="#FFFFFF">
            <path d="M40.3333333,27.5 C40.3315,28.512 39.512,29.3315 38.5,29.3333333 L12.8333333,29.3333333 C11.8213333,29.3315 11.0018333,28.512 11,27.5 L11,25.6666667 L31.1666667,25.6666667 C34.2045,25.6648333 36.6648333,23.2045 36.6666667,20.1666667 L36.6666667,11 L38.5,11 C39.512,11.0018333 40.3315,11.8213333 40.3333333,12.8333333 L40.3333333,27.5 Z M3.66666667,20.1666667 L3.66666667,5.5 C3.6685,4.488 4.488,3.6685 5.5,3.66666667 L31.1666667,3.66666667 C32.1786667,3.6685 32.9981667,4.488 33,5.5 L33,20.1666667 C32.9981667,21.1786667 32.1786667,21.9981667 31.1666667,22 L5.5,22 C4.488,21.9981667 3.6685,21.1786667 3.66666667,20.1666667 L3.66666667,20.1666667 Z M38.5,7.33333333 L36.6666667,7.33333333 L36.6666667,5.5 C36.6648333,2.46216667 34.2045,0.00183333333 31.1666667,0 L5.5,0 C2.46216667,0.00183333333 0.00183333333,2.46216667 0,5.5 L0,20.1666667 C0.00183333333,23.2045 2.46216667,25.6648333 5.5,25.6666667 L7.33333333,25.6666667 L7.33333333,27.5 C7.33516667,30.5378333 9.7955,32.9981667 12.8333333,33 L38.5,33 C41.5378333,32.9981667 43.9981667,30.5378333 44,27.5 L44,12.8333333 C43.9981667,9.7955 41.5378333,7.33516667 38.5,7.33333333 L38.5,7.33333333 Z" id="Fill-1"></path>
        </g>
    </g>
</svg>