<?xml version="1.0" encoding="UTF-8"?>
<svg width="50px" height="50px" viewBox="0 0 50 50" version="1.1" xmlns="http://www.w3.org/2000/svg" xmlns:xlink="http://www.w3.org/1999/xlink">
    <!-- Generator: Sketch 59.1 (86144) - https://sketch.com -->
    <title>u-icon-pdf</title>
    <desc>Created with Sketch.</desc>
    <defs>
        <polygon id="path-1" points="7.94792737e-06 -3.125e-05 33.1101117 -3.125e-05 33.1101117 39.9999687 7.94792737e-06 39.9999687"></polygon>
    </defs>
    <g id="u-icon-pdf" stroke="none" stroke-width="1" fill="none" fill-rule="evenodd">
        <g id="Group-10" transform="translate(8.000000, 5.000000)">
            <g id="Group-3">
                <mask id="mask-2" fill="white">
                    <use xlink:href="#path-1"></use>
                </mask>
                <g id="Clip-2"></g>
                <path d="M30.5829172,33.2893438 C30.5829172,35.6234844 28.658406,37.5152813 26.2843601,37.5152813 L6.82695964,37.5152813 C4.45180103,37.5152813 2.52728989,35.6234844 2.52728989,33.2893438 L2.52728989,12.5460625 L9.18097677,12.5460625 C11.1588185,12.5460625 12.763664,10.9697344 12.763664,9.02504688 L12.763664,2.48457813 L26.2843601,2.48457813 C28.658406,2.48457813 30.5829172,4.376375 30.5829172,6.71059375 L30.5829172,33.2893438 Z M26.2843601,-3.125e-05 L12.763664,-3.125e-05 L11.7159682,-3.125e-05 L10.9756188,0.727546875 L0.740277903,10.7891875 L7.94792737e-06,11.5168438 L7.94792737e-06,12.5461406 L7.94792737e-06,33.2894219 C7.94792737e-06,36.9894219 3.06218541,39.9999688 6.82695964,39.9999688 L26.2843601,39.9999688 C30.0479422,39.9999688 33.1101196,36.9894219 33.1101196,33.2894219 L33.1101196,6.71059375 C33.1101196,3.00989063 30.0479422,-3.125e-05 26.2843601,-3.125e-05 L26.2843601,-3.125e-05 Z" id="Fill-1" fill="#E22020" mask="url(#mask-2)"></path>
            </g>
            <path d="M9.82012717,24.812724 L8.56797874,24.812724 C8.52310625,24.812724 8.50013482,24.7927806 8.50013482,24.7531146 L8.50013482,23.0435756 C8.50013482,23.003468 8.52310625,22.9835982 8.56797874,22.9835982 L9.82012717,22.9835982 C10.5133866,22.9835982 10.9272839,23.3534709 10.9272839,23.9033493 C10.9273663,24.453007 10.5133866,24.812724 9.82012717,24.812724 M9.92123436,21.7142857 L7.57230338,21.7142857 C7.12506046,21.7142857 6.85714286,21.9742858 6.85714286,22.3638075 L6.85714286,27.791502 C6.85714286,28.2615332 7.20327857,28.5714286 7.6838671,28.5714286 C8.15408144,28.5714286 8.50013482,28.2616068 8.50013482,27.791502 L8.50013482,26.142529 C8.50013482,26.1024215 8.52310625,26.0824045 8.56797874,26.0824045 L9.92123436,26.0824045 C11.5757532,26.0824045 12.5714286,25.1826703 12.5714286,23.9032758 C12.5715109,22.603717 11.5872801,21.7142857 9.92123436,21.7142857" id="Fill-4" fill="#E22020"></path>
            <path d="M17.6457006,26.4740684 C17.4567083,27.0183426 16.9146803,27.2505742 16.160994,27.2505742 L15.4084492,27.2505742 C15.364014,27.2505742 15.3411849,27.2304544 15.3411849,27.1900663 L15.3411849,23.0957965 C15.3411849,23.0553341 15.364014,23.0352143 15.4084492,23.0352143 L16.160994,23.0352143 C16.9146803,23.0352143 17.4567083,23.2674459 17.6457006,23.8117944 C17.7230749,24.044026 17.7777017,24.4472389 17.7777017,25.1428943 C17.7777017,25.8385497 17.7229934,26.2418368 17.6457006,26.4740684 M16.2053477,21.7142857 L14.4224769,21.7142857 C13.9795924,21.7142857 13.7142857,21.9765857 13.7142857,22.369553 L13.7142857,27.9261098 C13.7142857,28.3195226 13.9795109,28.5714286 14.4224769,28.5714286 L16.2053477,28.5714286 C17.8107223,28.5714286 18.8081908,28.1074851 19.20664,26.9883485 C19.3500556,26.5947872 19.4285714,26.1210437 19.4285714,25.14282 C19.4285714,24.1647449 19.3499741,23.6909271 19.20664,23.29744 C18.8081092,22.1783035 17.8107223,21.7142857 16.2053477,21.7142857" id="Fill-6" fill="#E22020"></path>
            <path d="M25.6122777,21.7142857 L22.3480226,21.7142857 C21.9523377,21.7142857 21.7142857,21.9742858 21.7142857,22.3638075 L21.7142857,27.791502 C21.7142857,28.2615332 22.0215389,28.5714286 22.4467254,28.5714286 C22.8617138,28.5714286 23.1688941,28.2616068 23.1688941,27.791502 L23.1688941,25.8522091 C23.1688941,25.8126167 23.1881976,25.7925997 23.2278972,25.7925997 L25.1280882,25.7925997 C25.5532746,25.7925997 25.8004321,25.5326733 25.8004321,25.1626534 C25.8004321,24.792707 25.5532746,24.5332221 25.1280882,24.5332221 L23.2278972,24.5332221 C23.1881976,24.5332221 23.1688941,24.5132051 23.1688941,24.4730976 L23.1688941,23.0435756 C23.1688941,23.003468 23.1881976,22.9835982 23.2278972,22.9835982 L25.6122777,22.9835982 C26.0181608,22.9835982 26.2857143,22.7138104 26.2857143,22.3540934 C26.2856414,21.9839999 26.0180879,21.7142857 25.6122777,21.7142857" id="Fill-8" fill="#E22020"></path>
        </g>
    </g>
</svg>